<svg version="1.1" xmlns="http://www.w3.org/2000/svg" width="56" height="56">
<g>
<path d="M 16 0 L 40 0 A 8 8 0 0 1 48 8 L 48 32 A 8 8 0 0 1 40 40 L 24 40 L 24 32 L 36 32 A 4 4 0 0 0 40 28 L 40 12 A 4 4 0 0 0 36 8 L 16 8 L 16 20 L 24 20 L 24 16 L 30 16 A 2 2 0 0 1 32 18 L 32 22 A 2 2 0 0 1 30 24 L 16 24 L 16 40 A 8 8 0 0 1 8 32 L 8 8 A 8 8 0 0 1 16 0 Z M 18 44 L 22 44 A 2 2 0 0 1 24 46 L 24 50 A 2 2 0 0 1 22 52 L 18 52 A 2 2 0 0 1 16 50 L 16 46 A 2 2 0 0 1 18 44" fill="#222"></path>
</g>
</svg>